<svg width="98" height="32" viewBox="0 0 98 32" fill="none" xmlns="http://www.w3.org/2000/svg">
<path d="M3.98772 0H32.5877C33.0127 0 33.369 0.144583 33.6565 0.433749C33.944 0.722949 34.0877 1.08128 34.0877 1.50875C34.0877 1.93625 33.944 2.29167 33.6565 2.575C33.369 2.85833 33.0127 3 32.5877 3H3.98772C3.56272 3 3.20647 2.85542 2.91897 2.56625C2.63147 2.27705 2.48772 1.91872 2.48772 1.49125C2.48772 1.06375 2.63147 0.708333 2.91897 0.425C3.20647 0.141667 3.56272 0 3.98772 0ZM4.23772 31.35C3.81272 31.35 3.45647 31.2063 3.16897 30.9188C2.88147 30.6313 2.73772 30.275 2.73772 29.85V19.1H1.48772C1.01639 19.1 0.631887 18.9167 0.33422 18.55C0.0365534 18.1833 -0.06228 17.7667 0.03772 17.3L2.23772 7.2C2.30439 6.83333 2.47522 6.54167 2.75022 6.325C3.02522 6.10833 3.33772 6 3.68772 6H32.8377C33.1877 6 33.5002 6.10833 33.7752 6.325C34.0502 6.54167 34.2211 6.83333 34.2877 7.2L36.4877 17.3C36.5877 17.7667 36.4889 18.1833 36.1912 18.55C35.8936 18.9167 35.5091 19.1 35.0377 19.1H33.7877V29.85C33.7877 30.275 33.6431 30.6313 33.354 30.9188C33.0648 31.2063 32.7064 31.35 32.279 31.35C31.8515 31.35 31.4961 31.2063 31.2127 30.9188C30.9294 30.6313 30.7877 30.275 30.7877 29.85V19.1H21.8377V29.85C21.8377 30.275 21.694 30.6313 21.4065 30.9188C21.119 31.2063 20.7627 31.35 20.3377 31.35H4.23772ZM5.73772 28.35H18.8377V19.1H5.73772V28.35Z" fill="#FFFFFF"/>
<path d="M52.5077 5.67566V21.0906H59.9003L59.4349 24.65H48.0174V5.67566H52.5077Z" fill="#FFFFFF"/>
<path d="M67.5751 9.64576C69.802 9.64576 71.5452 10.3303 72.8047 11.6993C74.0641 13.05 74.6939 14.9484 74.6939 17.3943C74.6939 18.9458 74.4018 20.3057 73.8177 21.4739C73.2519 22.6239 72.4305 23.5183 71.3535 24.1572C70.2948 24.796 69.0353 25.1155 67.5751 25.1155C65.3664 25.1155 63.6232 24.4401 62.3455 23.0893C61.086 21.7203 60.4563 19.8129 60.4563 17.3669C60.4563 15.8154 60.7392 14.4646 61.3051 13.3147C61.8892 12.1465 62.7106 11.2429 63.7693 10.6041C64.8462 9.96519 66.1148 9.64576 67.5751 9.64576ZM67.5751 12.8218C66.6989 12.8218 66.0418 13.196 65.6037 13.9444C65.1656 14.6746 64.9466 15.8154 64.9466 17.3669C64.9466 18.955 65.1565 20.114 65.5763 20.8442C66.0144 21.5743 66.6807 21.9394 67.5751 21.9394C68.4512 21.9394 69.1084 21.5743 69.5464 20.8442C69.9845 20.0958 70.2036 18.9458 70.2036 17.3943C70.2036 15.8063 69.9845 14.6472 69.5464 13.917C69.1266 13.1869 68.4695 12.8218 67.5751 12.8218Z" fill="#FFFFFF"/>
<path d="M81.5658 23.0072C81.5658 24.5222 81.3194 25.7726 80.8266 26.7583C80.352 27.7439 79.6949 28.5288 78.8552 29.1129C78.0338 29.7153 76.9934 30.2446 75.7339 30.701L74.2828 27.5523C74.9946 27.2237 75.5514 26.9043 75.9529 26.594C76.3545 26.2837 76.6648 25.8638 76.8839 25.3345C77.1212 24.8234 77.2398 24.1389 77.2398 23.281V10.1112H81.5658V23.0072ZM79.4028 2.44482C80.1512 2.44482 80.7627 2.68211 81.2373 3.1567C81.7301 3.61303 81.9765 4.19714 81.9765 4.90902C81.9765 5.6209 81.7301 6.21413 81.2373 6.68872C80.7627 7.14505 80.1512 7.37322 79.4028 7.37322C78.6544 7.37322 78.0429 7.14505 77.5684 6.68872C77.0938 6.21413 76.8565 5.6209 76.8565 4.90902C76.8565 4.19714 77.0938 3.61303 77.5684 3.1567C78.0429 2.68211 78.6544 2.44482 79.4028 2.44482Z" fill="#FFFFFF"/>
<path d="M96.5222 20.4335C96.5222 20.9811 96.5952 21.3827 96.7412 21.6382C96.9055 21.8937 97.161 22.0854 97.5078 22.2132L96.6043 25.0333C95.7099 24.9603 94.9797 24.7686 94.4139 24.4583C93.848 24.1298 93.41 23.6187 93.0997 22.9251C92.1505 24.3853 90.6902 25.1155 88.7189 25.1155C87.2768 25.1155 86.1269 24.6956 85.269 23.856C84.4111 23.0163 83.9821 21.9211 83.9821 20.5704C83.9821 18.9823 84.5662 17.7685 85.7344 16.9288C86.9026 16.0892 88.5911 15.6694 90.7997 15.6694H92.2783V15.0396C92.2783 14.1817 92.0957 13.5976 91.7307 13.2873C91.3656 12.9587 90.7267 12.7945 89.8141 12.7945C89.3395 12.7945 88.7645 12.8675 88.0891 13.0135C87.4137 13.1413 86.7201 13.3238 86.0082 13.5611L85.0226 10.7136C85.9352 10.3668 86.8661 10.1021 87.8153 9.91956C88.7827 9.73703 89.6772 9.64576 90.4986 9.64576C92.5794 9.64576 94.1036 10.0747 95.071 10.9326C96.0384 11.7905 96.5222 13.0774 96.5222 14.7932V20.4335ZM89.9783 22.0215C90.964 22.0215 91.7307 21.5561 92.2783 20.6251V18.0514H91.2104C90.2248 18.0514 89.4855 18.2248 88.9927 18.5716C88.5181 18.9185 88.2808 19.4569 88.2808 20.1871C88.2808 20.7712 88.4268 21.2275 88.7189 21.5561C89.0292 21.8664 89.449 22.0215 89.9783 22.0215Z" fill="#FFFFFF"/>
</svg>
