<svg width="32" height="32" viewBox="0 0 32 32" fill="none" xmlns="http://www.w3.org/2000/svg">
<path d="M22.6666 24C21.1866 24 20 25.1867 20 26.6667C20 27.3739 20.2809 28.0522 20.781 28.5523C21.2811 29.0524 21.9594 29.3333 22.6666 29.3333C23.3739 29.3333 24.0522 29.0524 24.5523 28.5523C25.0524 28.0522 25.3333 27.3739 25.3333 26.6667C25.3333 25.9594 25.0524 25.2811 24.5523 24.7811C24.0522 24.281 23.3739 24 22.6666 24ZM1.33331 2.66667V5.33334H3.99998L8.79998 15.4533L6.98665 18.72C6.78665 19.0933 6.66665 19.5333 6.66665 20C6.66665 20.7072 6.9476 21.3855 7.44769 21.8856C7.94779 22.3857 8.62607 22.6667 9.33331 22.6667H25.3333V20H9.89331C9.80491 20 9.72012 19.9649 9.65761 19.9024C9.5951 19.8399 9.55998 19.7551 9.55998 19.6667C9.55998 19.6 9.57331 19.5467 9.59998 19.5067L10.8 17.3333H20.7333C21.7333 17.3333 22.6133 16.7733 23.0666 15.96L27.84 7.33334C27.9333 7.12 28 6.89334 28 6.66667C28 6.31305 27.8595 5.97391 27.6095 5.72386C27.3594 5.47381 27.0203 5.33334 26.6666 5.33334H6.94665L5.69331 2.66667M9.33331 24C7.85331 24 6.66665 25.1867 6.66665 26.6667C6.66665 27.3739 6.9476 28.0522 7.44769 28.5523C7.94779 29.0524 8.62607 29.3333 9.33331 29.3333C10.0406 29.3333 10.7188 29.0524 11.2189 28.5523C11.719 28.0522 12 27.3739 12 26.6667C12 25.9594 11.719 25.2811 11.2189 24.7811C10.7188 24.281 10.0406 24 9.33331 24Z" fill="#E6E6E6"/>
</svg>
